<?xml version="1.0" encoding="utf-8"?>
<!-- Generator: Adobe Illustrator 27.5.0, SVG Export Plug-In . SVG Version: 6.00 Build 0)  -->
<svg version="1.1" id="Calque_1" xmlns="http://www.w3.org/2000/svg" xmlns:xlink="http://www.w3.org/1999/xlink" x="0px" y="0px"
	 viewBox="0 0 225.4 214.9" style="enable-background:new 0 0 225.4 214.9;" xml:space="preserve">
<style type="text/css">
	.st0{fill:url(#SVGID_1_);}
	.st1{fill:url(#SVGID_00000067212914382455773460000008818249530666471593_);}
	.st2{fill:url(#SVGID_00000142163829413928024190000016479016671420432045_);}
	.st3{fill:url(#SVGID_00000052790637212449723210000004608589868108947095_);}
	.st4{fill:url(#SVGID_00000139995200607671361870000008367386705059091379_);}
	.st5{fill:url(#SVGID_00000023280248672624879160000010028980640154995087_);}
	.st6{fill:#164C6C;}
	.st7{opacity:0.5;fill:#FFFFFF;}
	.st8{fill:#29ABE2;}
	.st9{fill:#F15A24;}
	.st10{fill-rule:evenodd;clip-rule:evenodd;fill:#29ABE2;}
	.st11{fill-rule:evenodd;clip-rule:evenodd;fill:#F15A24;}
</style>
<g>
	<linearGradient id="SVGID_1_" gradientUnits="userSpaceOnUse" x1="92.6352" y1="164.3142" x2="100.2592" y2="60.9718">
		<stop  offset="0.3571" style="stop-color:#2B98D8"/>
		<stop  offset="1" style="stop-color:#A10B0B"/>
	</linearGradient>
	<path class="st0" d="M93.9,147.8C93.9,147.8,93.9,147.8,93.9,147.8C93.9,147.8,93.9,147.8,93.9,147.8L93.9,147.8z"/>
	
		<linearGradient id="SVGID_00000011749037758368313150000008555529352180800134_" gradientUnits="userSpaceOnUse" x1="108.862" y1="165.1532" x2="116.3215" y2="64.0397">
		<stop  offset="0.3571" style="stop-color:#2B98D8"/>
		<stop  offset="1" style="stop-color:#A10B0B"/>
	</linearGradient>
	<path style="fill:url(#SVGID_00000011749037758368313150000008555529352180800134_);" d="M126.7,111.7c0,0,0.7,4.3-13.4,10.9
		c-14.1,6.6-17.6,8.4-18,12.4c-0.4,3.5-1.2,10.8-1.4,12.8c0.3-1.1,1.7-3.8,9.2-7.9c9.8-5.3,25.4-9.7,25.1-15.3
		C127.7,119,126.7,111.7,126.7,111.7z"/>
	
		<linearGradient id="SVGID_00000180351367481950618710000002369803005262443435_" gradientUnits="userSpaceOnUse" x1="107.2122" y1="165.0308" x2="114.6718" y2="63.9162">
		<stop  offset="0.3571" style="stop-color:#2B98D8"/>
		<stop  offset="1" style="stop-color:#A10B0B"/>
	</linearGradient>
	<path style="fill:url(#SVGID_00000180351367481950618710000002369803005262443435_);" d="M114.8,99c-10.4,5-15.5,7.6-16.3,12.9
		c-0.7,5.4-1.5,10.7-1.5,10.7c0.6-3.9,8.2-8.5,15.8-12.1c7.6-3.7,13-6.1,12.6-10.1c-0.3-3.6-1.1-8.5-1.2-9.5
		C124.2,91.7,123.7,94.6,114.8,99z"/>
	
		<linearGradient id="SVGID_00000129181016282256213080000010209725284249582772_" gradientUnits="userSpaceOnUse" x1="106.8613" y1="153.8382" x2="113.0086" y2="70.5127">
		<stop  offset="0.3571" style="stop-color:#2B98D8"/>
		<stop  offset="1" style="stop-color:#A10B0B"/>
	</linearGradient>
	<path style="fill:url(#SVGID_00000129181016282256213080000010209725284249582772_);" d="M122.1,73.2l-0.1-3.7
		c1.3-0.4,2.1-0.9,2.1-1.4v-3.7c0,0-3.5-1.9-8.2-2.2c-1.7,0-4.4,0-6,0.1c-4.3,0.3-8.2,2.1-8.2,2.1v3.7c0,0,0,0.9,1.8,1.6l0.1,3.8
		c-5,0.7-8.3,1.8-8.3,3c0,0.3,1.6,2.5,1.6,2.5s0.5,0.7,1.2,0.8c0.6,0.1,1.8,0.7,2.5,1.3c0.7,0.6,1.4,1.8,1.4,2.6
		c0,0.8,0.8,1.5,1.8,1.4l2.3,0c-2.8,1.6-3.7,3.3-4.5,4.5c-0.9,1.2-1.6,11.6-1.6,11.6s0.4-1.1,2-3.5c1.6-2.5,7.9-5.9,12.7-8.5
		c4-2.2,7.6-4.3,7.6-4.3c0.9-0.5,1.8-1,1.8-1.8c0-1,0.4-2.1,0.9-2.6c0.5-0.5,1.5-0.9,2.1-1c0.6-0.1,1.2-0.8,1.2-0.8s1.5-2.2,1.5-2.6
		C129.8,74.7,126.8,73.8,122.1,73.2z"/>
	
		<linearGradient id="SVGID_00000183940072726069949750000007655201174178913686_" gradientUnits="userSpaceOnUse" x1="118.5439" y1="166.0761" x2="126.0242" y2="64.6809">
		<stop  offset="0.3571" style="stop-color:#2B98D8"/>
		<stop  offset="1" style="stop-color:#A10B0B"/>
	</linearGradient>
	<path style="fill:url(#SVGID_00000183940072726069949750000007655201174178913686_);" d="M124.1,90.9c0-0.1,0-0.2,0-0.2
		S124.1,90.8,124.1,90.9z"/>
</g>
<linearGradient id="SVGID_00000018922019240823835990000014114531378479323323_" gradientUnits="userSpaceOnUse" x1="113.0187" y1="54.9903" x2="113.0187" y2="63.7656">
	<stop  offset="0" style="stop-color:#F7931E"/>
	<stop  offset="1" style="stop-color:#ED1C24"/>
</linearGradient>
<polygon style="fill:url(#SVGID_00000018922019240823835990000014114531378479323323_);" points="120.9,68.3 105.1,68.3 105.1,55 
	113.2,52.4 120.9,54.3 "/>
<path class="st6" d="M104.3,56.9c0.2-0.4,0.9-1.1,2-1.6c1.6-0.9,4-1.6,6.8-1.7c4.6-0.1,8.4,2,8.8,3.1h0c0,0,0,0,0,0
	c0-2.5-3.6-7-8.1-7.1l-2.2,0.1C107.4,50,104.2,54.5,104.3,56.9C104.3,56.9,104.3,56.9,104.3,56.9L104.3,56.9z"/>
<path class="st7" d="M153.9,22.5C99.4,70.1,103.5,59.8,141.4,54c-37.9,5.8-44.1-3.4,18.8,28.1c-63-31.5-51.9-30.8-33.8-2.1
	c-18.1-28.7-11.3-37.3-20.9,26.6c9.6-64,12.4-53.3-8.4-32.8c20.8-20.5,31.2-16.6-31.8-11.7c63-5,53.6,0.9,28.6-18.1
	c25,19.1,24.6,30.1,1.3-33.8c23.3,64,14.8,56.9,26.1,21.6C110.1,67.1,99.4,70.1,153.9,22.5z"/>
<g>
	<path class="st8" d="M101.6,155c0,0.8-0.2,1.5-0.7,2s-1,1-1.8,1.3c-0.4,0.2-0.9,0.3-1.4,0.4s-1.1,0.1-1.6,0.1l0,2.9h-2.6
		c0-0.5,0-1.1,0-1.9s0-2.1,0-3.7c0-0.6,0-1.3,0-2.1c0-0.8,0-1.7,0-2.7c0.2,0,0.5,0,0.8,0c0.3,0,0.6,0,0.9,0c1.1,0,2,0,2.7,0.1
		c0.7,0.1,1.2,0.3,1.7,0.5c0.6,0.3,1.1,0.7,1.5,1.2C101.4,153.7,101.6,154.3,101.6,155z M98.9,155.2c0-0.4-0.1-0.8-0.3-1
		s-0.5-0.5-0.8-0.7c-0.2-0.1-0.5-0.2-0.8-0.2c-0.3,0-0.6,0-0.8,0c0,0-0.1,0-0.1,0s-0.1,0-0.1,0c0,0.1,0,0.4,0,0.9c0,0.5,0,1,0,1.3
		c0,0.3,0,0.7,0,1.2s0,0.7,0,0.8c0,0,0.1,0,0.1,0c0.1,0,0.1,0,0.1,0c0.3,0,0.5,0,0.8-0.1c0.3,0,0.6-0.1,0.8-0.2
		c0.4-0.2,0.6-0.4,0.8-0.7C98.8,156,98.9,155.7,98.9,155.2z"/>
	<path class="st8" d="M110.6,161.8h-2.4c0-0.2,0-0.7,0-1.5s0-1.3,0-1.6c0-0.3,0-0.6,0-0.9c0-0.3,0-0.6,0-0.9c0-0.5-0.1-0.9-0.3-1.1
		c-0.2-0.2-0.4-0.3-0.8-0.3c-0.2,0-0.5,0.1-0.9,0.2c-0.3,0.1-0.7,0.3-1,0.5l0,5.6h-2.4c0-0.4,0-1.1,0-2.3s0-2.4,0-3.7
		c0-0.7,0-1.5,0-2.4c0-0.9,0-1.9,0-3h2.4l0,4.2l0,0c0.5-0.3,1-0.5,1.6-0.7s1-0.3,1.4-0.3c0.7,0,1.3,0.2,1.7,0.7s0.6,1,0.6,1.8
		c0,0.6,0,1.2,0,1.6c0,0.4,0,0.8,0,1.1c0,0.5,0,1,0,1.7S110.6,161.5,110.6,161.8z"/>
	<path class="st8" d="M119,157.6c0,1.3,0,2.3,0,3c0,0.7,0,1.1,0,1.2c-0.1,0-0.4,0-1,0.1s-1.2,0.1-1.9,0.1c-0.4,0-0.9,0-1.5-0.1
		c-0.6-0.1-1-0.2-1.4-0.4c-0.5-0.2-0.9-0.5-1.1-0.8c-0.3-0.3-0.4-0.7-0.4-1.2c0-0.5,0.1-0.9,0.4-1.3c0.3-0.4,0.7-0.6,1.4-0.9
		c0.4-0.2,0.9-0.3,1.5-0.4c0.6-0.1,1.2-0.2,1.6-0.2c0-0.3-0.1-0.5-0.2-0.7s-0.4-0.3-0.7-0.4c-0.2-0.1-0.4-0.1-0.7-0.1
		c-0.3,0-0.6,0-0.9,0c-0.3,0-0.6,0-0.8,0c-0.2,0-0.5,0-0.7,0l0.2-1.7c0.1,0,0.3,0,0.5,0c0.2,0,0.6,0,1,0c0.9,0,1.6,0.1,2.2,0.2
		c0.6,0.2,1.1,0.4,1.5,0.7c0.4,0.3,0.6,0.7,0.8,1.2C118.9,156.3,119,156.9,119,157.6z M116.8,159.1c0-0.2,0-0.4,0-0.6
		c0-0.2,0-0.5,0-0.7c-0.2,0-0.4,0-0.8,0.1c-0.4,0.1-0.7,0.1-1,0.3c-0.2,0.1-0.4,0.2-0.6,0.4c-0.2,0.2-0.3,0.4-0.3,0.7
		c0,0.3,0.1,0.5,0.2,0.7c0.2,0.2,0.4,0.3,0.6,0.4c0.2,0.1,0.4,0.1,0.6,0.1c0.2,0,0.5,0,0.7,0c0.1,0,0.1,0,0.2,0c0.1,0,0.2,0,0.3,0
		c0-0.1,0-0.2,0-0.5C116.8,159.7,116.8,159.4,116.8,159.1z"/>
	<path class="st8" d="M126.7,155.6c-0.4,0.1-0.9,0.3-1.4,0.5c-0.5,0.2-1.2,0.5-2.1,0.9c0,0.1,0,0.4,0,0.7c0,0.3,0,0.7,0,1
		c0,0.6,0,1.2,0,1.9c0,0.7,0,1.1,0,1.2h-2.4c0-0.2,0-0.5,0-1.2s0-1.5,0-2.5c0-0.5,0-1.1,0-1.9c0-0.8,0-1.6,0-2.4h2.3l0,1.1l0,0
		c0.5-0.3,1-0.6,1.6-0.9c0.6-0.3,1-0.4,1.3-0.5L126.7,155.6z"/>
	<path class="st8" d="M135,157.8c0,0.6-0.1,1.2-0.3,1.7c-0.2,0.5-0.6,1-1,1.4c-0.4,0.3-0.8,0.6-1.3,0.8s-1,0.3-1.6,0.3
		c-0.6,0-1.1-0.1-1.6-0.3s-0.9-0.4-1.3-0.8c-0.4-0.4-0.8-0.9-1-1.4c-0.2-0.6-0.4-1.1-0.4-1.8c0-0.6,0.1-1.2,0.3-1.7
		c0.2-0.5,0.5-1,0.9-1.4c0.4-0.4,0.8-0.7,1.3-0.9c0.5-0.2,1.1-0.3,1.7-0.3c0.6,0,1.1,0.1,1.6,0.3c0.5,0.2,0.9,0.5,1.3,0.8
		c0.4,0.4,0.8,0.9,1,1.4C134.9,156.6,135,157.2,135,157.8z M132.7,157.8c0-0.4-0.1-0.7-0.2-1.1c-0.1-0.4-0.3-0.7-0.5-0.9
		c-0.1-0.1-0.3-0.3-0.5-0.3c-0.2-0.1-0.4-0.1-0.6-0.1c-0.3,0-0.5,0-0.7,0.1c-0.2,0.1-0.4,0.2-0.6,0.4c-0.2,0.2-0.4,0.5-0.5,0.8
		c-0.1,0.3-0.2,0.7-0.2,1c0,0.4,0.1,0.8,0.2,1.1c0.1,0.3,0.3,0.6,0.6,0.9c0.1,0.1,0.3,0.3,0.5,0.3s0.4,0.1,0.6,0.1
		c0.2,0,0.4,0,0.7-0.1c0.2-0.1,0.4-0.2,0.5-0.4c0.2-0.2,0.4-0.5,0.5-0.9C132.6,158.6,132.7,158.2,132.7,157.8z"/>
	<path class="st9" d="M88.4,171.4l-1.6,0.5c0-0.1-0.1-0.3-0.3-0.7s-0.3-0.8-0.5-1.2h-2.5c-0.2,0.5-0.4,0.9-0.5,1.2
		c-0.1,0.4-0.2,0.6-0.2,0.7l-1.5-0.5c0.1-0.2,0.4-1,1-2.3s1.2-2.7,1.7-3.9h1.7c0.6,1.3,1.1,2.6,1.7,4
		C88.1,170.6,88.4,171.3,88.4,171.4z M85.7,169c-0.1-0.3-0.3-0.7-0.4-1.1s-0.3-0.8-0.4-1.2l0,0c-0.1,0.3-0.3,0.7-0.4,1.2
		c-0.2,0.5-0.3,0.8-0.4,1.1l0,0L85.7,169L85.7,169z"/>
	<path class="st9" d="M93.3,169.9c0,0.4-0.1,0.7-0.3,0.9c-0.2,0.3-0.4,0.5-0.8,0.6c-0.3,0.1-0.6,0.3-1,0.3s-0.8,0.1-1.3,0.1
		c-0.3,0-0.6,0-0.8,0c-0.2,0-0.4,0-0.5,0l-0.1-1.3c0,0,0.2,0,0.4,0s0.5,0,0.7,0c0.2,0,0.3,0,0.6,0c0.2,0,0.4-0.1,0.6-0.1
		c0.2-0.1,0.3-0.1,0.4-0.2s0.1-0.2,0.1-0.4c0-0.2,0-0.3-0.1-0.4c-0.1-0.1-0.2-0.2-0.5-0.3c-0.1-0.1-0.3-0.2-0.6-0.3
		c-0.2-0.1-0.4-0.2-0.6-0.3c-0.3-0.2-0.5-0.4-0.7-0.6c-0.1-0.2-0.2-0.5-0.2-0.8c0-0.3,0.1-0.5,0.2-0.7s0.2-0.4,0.4-0.5
		c0.3-0.2,0.6-0.4,1-0.5c0.4-0.1,1-0.2,1.6-0.2c0.3,0,0.5,0,0.7,0c0.2,0,0.3,0,0.4,0l0.2,1.3c-0.1,0-0.2,0-0.4,0s-0.4,0-0.7,0
		c-0.2,0-0.4,0-0.5,0c-0.2,0-0.3,0.1-0.5,0.1c-0.1,0-0.3,0.1-0.3,0.2s-0.1,0.2-0.1,0.3c0,0.1,0,0.2,0.1,0.3c0.1,0.1,0.3,0.2,0.5,0.3
		c0.2,0.1,0.3,0.2,0.5,0.2s0.4,0.2,0.6,0.3c0.3,0.2,0.5,0.4,0.7,0.6C93.2,169.3,93.3,169.6,93.3,169.9z"/>
	<path class="st9" d="M98.7,169.9c0,0.4-0.1,0.7-0.3,0.9c-0.2,0.3-0.4,0.5-0.8,0.6c-0.3,0.1-0.6,0.3-1,0.3s-0.8,0.1-1.3,0.1
		c-0.3,0-0.6,0-0.8,0c-0.2,0-0.4,0-0.5,0l-0.1-1.3c0,0,0.2,0,0.4,0s0.5,0,0.7,0c0.2,0,0.3,0,0.6,0c0.2,0,0.4-0.1,0.6-0.1
		c0.2-0.1,0.3-0.1,0.4-0.2s0.1-0.2,0.1-0.4c0-0.2,0-0.3-0.1-0.4c-0.1-0.1-0.2-0.2-0.5-0.3c-0.1-0.1-0.3-0.2-0.6-0.3
		c-0.2-0.1-0.4-0.2-0.6-0.3c-0.3-0.2-0.5-0.4-0.7-0.6c-0.1-0.2-0.2-0.5-0.2-0.8c0-0.3,0.1-0.5,0.2-0.7s0.2-0.4,0.4-0.5
		c0.3-0.2,0.6-0.4,1-0.5c0.4-0.1,1-0.2,1.6-0.2c0.3,0,0.5,0,0.7,0c0.2,0,0.3,0,0.4,0l0.2,1.3c-0.1,0-0.2,0-0.4,0s-0.4,0-0.7,0
		c-0.2,0-0.4,0-0.5,0c-0.2,0-0.3,0.1-0.5,0.1c-0.1,0-0.3,0.1-0.3,0.2S96,167,96,167.2c0,0.1,0,0.2,0.1,0.3c0.1,0.1,0.3,0.2,0.5,0.3
		c0.2,0.1,0.3,0.2,0.5,0.2s0.4,0.2,0.6,0.3c0.3,0.2,0.5,0.4,0.7,0.6C98.6,169.3,98.7,169.6,98.7,169.9z"/>
	<path class="st9" d="M106.2,168.5c0,0.5-0.1,1-0.3,1.4c-0.2,0.4-0.5,0.8-0.8,1.1c-0.3,0.3-0.7,0.5-1.1,0.7s-0.8,0.2-1.3,0.2
		c-0.4,0-0.9-0.1-1.3-0.2c-0.4-0.1-0.8-0.3-1.1-0.6c-0.3-0.3-0.6-0.7-0.8-1.1c-0.2-0.4-0.3-0.9-0.3-1.5c0-0.5,0.1-1,0.2-1.4
		c0.2-0.4,0.4-0.8,0.7-1.1c0.3-0.3,0.7-0.5,1.1-0.7c0.4-0.2,0.9-0.2,1.4-0.2c0.5,0,0.9,0.1,1.3,0.2c0.4,0.2,0.8,0.4,1.1,0.7
		c0.3,0.3,0.6,0.7,0.8,1.1C106.1,167.5,106.2,168,106.2,168.5z M104.5,168.6c0-0.3-0.1-0.7-0.2-1c-0.1-0.3-0.3-0.6-0.5-0.8
		c-0.1-0.1-0.3-0.2-0.5-0.3s-0.4-0.1-0.6-0.1c-0.2,0-0.4,0-0.6,0.1c-0.2,0.1-0.4,0.2-0.5,0.4c-0.2,0.2-0.4,0.5-0.5,0.8
		c-0.1,0.3-0.2,0.6-0.2,0.9c0,0.4,0.1,0.7,0.2,1s0.3,0.5,0.5,0.7c0.1,0.1,0.3,0.2,0.5,0.3c0.2,0.1,0.4,0.1,0.6,0.1
		c0.2,0,0.4,0,0.6-0.1s0.4-0.2,0.5-0.3c0.2-0.2,0.4-0.4,0.5-0.7C104.5,169.2,104.5,168.9,104.5,168.6z"/>
	<path class="st9" d="M112.2,170.5c0,0.2-0.1,0.4-0.1,0.6c0,0.2-0.1,0.5-0.1,0.8c0,0-0.1,0-0.1,0s-0.1,0-0.1,0
		c-0.8,0-1.5-0.1-2.2-0.3c-0.6-0.2-1.2-0.5-1.6-0.8c-0.3-0.3-0.6-0.6-0.8-1c-0.2-0.4-0.3-0.8-0.3-1.3c0-0.5,0.1-0.9,0.3-1.2
		c0.2-0.4,0.5-0.7,0.8-1c0.4-0.4,1-0.6,1.6-0.8c0.7-0.2,1.3-0.3,2.1-0.3c0,0,0.1,0,0.1,0c0,0,0.1,0,0.1,0c0,0.1,0,0.3,0.1,0.6
		c0,0.2,0.1,0.5,0.1,0.8c0,0-0.1,0-0.1,0c0,0-0.1,0-0.1,0c-0.3,0-0.6,0-1,0.1c-0.4,0.1-0.7,0.2-1,0.3c-0.4,0.2-0.7,0.4-0.9,0.7
		c-0.2,0.3-0.3,0.6-0.3,0.9c0,0.4,0.1,0.7,0.3,0.9s0.5,0.5,0.9,0.7c0.3,0.1,0.6,0.2,1,0.3c0.4,0.1,0.7,0.1,1,0.1c0,0,0.1,0,0.1,0
		S112.1,170.5,112.2,170.5z"/>
	<path class="st9" d="M114.6,171.8H113c0-0.3,0-0.7,0-1.2s0-1.2,0-2.1c0-0.4,0-0.9,0-1.4c0-0.6,0-1.2,0-1.8h1.6c0,0.4,0,1,0,1.5
		s0,1.1,0,1.6c0,0.9,0,1.6,0,2.1S114.6,171.4,114.6,171.8z"/>
	<path class="st9" d="M122.2,171.4l-1.6,0.5c0-0.1-0.1-0.3-0.3-0.7s-0.3-0.8-0.5-1.2h-2.5c-0.2,0.5-0.4,0.9-0.5,1.2
		c-0.1,0.4-0.2,0.6-0.2,0.7l-1.5-0.5c0.1-0.2,0.4-1,1-2.3s1.2-2.7,1.7-3.9h1.7c0.6,1.3,1.1,2.6,1.7,4
		C121.9,170.6,122.2,171.3,122.2,171.4z M119.5,169c-0.1-0.3-0.3-0.7-0.4-1.1s-0.3-0.8-0.4-1.2l0,0c-0.1,0.3-0.3,0.7-0.4,1.2
		c-0.2,0.5-0.3,0.8-0.4,1.1l0,0L119.5,169L119.5,169z"/>
	<path class="st9" d="M127.9,166.6c-0.1,0-0.4,0-0.8,0c-0.4,0-0.8,0-1.4,0c0,0.5,0,0.9,0,1.2c0,0.3,0,0.7,0,1.2c0,0.6,0,1.1,0,1.6
		s0,0.9,0,1.2h-1.6c0-0.2,0-0.6,0-1.1c0-0.5,0-1.1,0-1.7c0-0.4,0-0.8,0-1.1s0-0.7,0-1.3c-0.5,0-1,0-1.4,0s-0.7,0-0.7,0v-1.3
		c0.3,0,0.7,0,1.2,0s1.2,0,1.7,0c0.7,0,1.3,0,1.9,0c0.6,0,1,0,1.1,0V166.6z"/>
	<path class="st9" d="M130.1,171.8h-1.6c0-0.3,0-0.7,0-1.2s0-1.2,0-2.1c0-0.4,0-0.9,0-1.4c0-0.6,0-1.2,0-1.8h1.6c0,0.4,0,1,0,1.5
		s0,1.1,0,1.6c0,0.9,0,1.6,0,2.1S130,171.4,130.1,171.8z"/>
	<path class="st9" d="M138,168.5c0,0.5-0.1,1-0.3,1.4c-0.2,0.4-0.5,0.8-0.8,1.1c-0.3,0.3-0.7,0.5-1.1,0.7s-0.8,0.2-1.3,0.2
		c-0.4,0-0.9-0.1-1.3-0.2c-0.4-0.1-0.8-0.3-1.1-0.6c-0.3-0.3-0.6-0.7-0.8-1.1c-0.2-0.4-0.3-0.9-0.3-1.5c0-0.5,0.1-1,0.2-1.4
		c0.2-0.4,0.4-0.8,0.7-1.1c0.3-0.3,0.7-0.5,1.1-0.7c0.4-0.2,0.9-0.2,1.4-0.2c0.5,0,0.9,0.1,1.3,0.2c0.4,0.2,0.8,0.4,1.1,0.7
		c0.3,0.3,0.6,0.7,0.8,1.1C137.9,167.5,138,168,138,168.5z M136.4,168.6c0-0.3-0.1-0.7-0.2-1c-0.1-0.3-0.3-0.6-0.5-0.8
		c-0.1-0.1-0.3-0.2-0.5-0.3s-0.4-0.1-0.6-0.1c-0.2,0-0.4,0-0.6,0.1c-0.2,0.1-0.4,0.2-0.5,0.4c-0.2,0.2-0.4,0.5-0.5,0.8
		c-0.1,0.3-0.2,0.6-0.2,0.9c0,0.4,0.1,0.7,0.2,1s0.3,0.5,0.5,0.7c0.1,0.1,0.3,0.2,0.5,0.3c0.2,0.1,0.4,0.1,0.6,0.1
		c0.2,0,0.4,0,0.6-0.1s0.4-0.2,0.5-0.3c0.2-0.2,0.4-0.4,0.5-0.7C136.3,169.2,136.4,168.9,136.4,168.6z"/>
	<path class="st9" d="M145.3,165.2c0,0.6,0,1.1,0,1.7c0,0.6,0,1,0,1.3c0,0.7,0,1.4,0,2s0,1,0,1.1l-1.2,0.5c-0.8-1.1-1.6-2.1-2.3-2.9
		c-0.7-0.9-1.1-1.4-1.3-1.6l0,0c0,0.7,0,1.5,0,2.5c0,1,0,1.6,0,1.8h-1.5c0-0.2,0-0.5,0-1.1s0-1.2,0-2.1c0-0.3,0-0.8,0-1.3
		c0-0.5,0-1.1,0-1.7l1.3-0.5c0.1,0.2,0.6,0.7,1.3,1.6c0.7,0.9,1.4,1.8,2.2,2.7l0,0c0-0.4,0-1.1,0-2s0-1.6,0-2.1H145.3z"/>
</g>
<path class="st10" d="M48.4,91.5c18.6,19.1,31.6,24,39,14.7c5.8,22.6,2.2,42.3-10.9,59.1C91.7,121.2,56,111.4,48.4,91.5"/>
<path class="st10" d="M76.2,105.9c-3.9,1.2-8-1.1-9.1-4.9c-1.2-3.9,1.1-8,4.9-9.1c3.9-1.2,8,1.1,9.1,4.9
	C82.3,100.7,80.1,104.8,76.2,105.9"/>
<path class="st11" d="M39.4,115.3c14.2,14.6,24.2,18.4,29.9,11.3c4.5,17.3,1.7,32.4-8.3,45.2C72.5,138.1,45.2,130.6,39.4,115.3"/>
<path class="st11" d="M60.6,126.4c-3,0.9-6.1-0.8-7-3.8c-0.9-3,0.8-6.1,3.8-7c3-0.9,6.1,0.8,7,3.8C65.3,122.4,63.6,125.5,60.6,126.4
	"/>
<path class="st10" d="M177.4,90.6c-18.9,18.8-32,23.5-39.3,14.1c-6.2,22.5-2.9,42.3,10,59.2C133.6,119.7,169.4,110.5,177.4,90.6"/>
<path class="st10" d="M149.3,104.6c3.9,1.2,8-0.9,9.2-4.8c1.2-3.9-0.9-8-4.8-9.2c-3.9-1.2-8,0.9-9.2,4.8
	C143.3,99.3,145.5,103.4,149.3,104.6"/>
<path class="st11" d="M186,114.6c-14.4,14.4-24.4,18-30,10.8c-4.7,17.2-2.2,32.3,7.6,45.3C152.5,136.8,179.9,129.8,186,114.6"/>
<path class="st11" d="M164.6,125.3c3,0.9,6.1-0.7,7-3.7c0.9-3-0.7-6.1-3.7-7s-6.1,0.7-7,3.7C160,121.3,161.6,124.4,164.6,125.3"/>
</svg>
